<svg width="71" height="23" viewBox="0 0 71 23" fill="none" xmlns="http://www.w3.org/2000/svg">
<path d="M10.9107 22.45C7.71067 22.45 5.21067 21.5 3.41067 19.6C1.61067 17.7 0.710672 15 0.710672 11.5C0.710672 9.2 1.10067 7.23 1.88067 5.59C2.68067 3.93 3.79067 2.68 5.21067 1.84C6.65067 0.979999 8.31067 0.549999 10.1907 0.549999C11.3307 0.549999 12.4807 0.879999 13.6407 1.54C14.0807 1.78 14.5207 2.1 14.9607 2.5C15.3007 1.98 15.6507 1.57 16.0107 1.27C16.3707 1.01 16.5707 0.869998 16.6107 0.849999H17.3607V6.55H16.1607C15.9007 5.59 15.5107 4.72 14.9907 3.94C14.5107 3.18 13.9107 2.55 13.1907 2.05C12.4907 1.55 11.6807 1.3 10.7607 1.3C9.38067 1.3 8.23067 2.1 7.31067 3.7C6.41067 5.3 5.96067 7.9 5.96067 11.5C5.96067 15.16 6.45067 17.78 7.43067 19.36C8.43067 20.92 9.79067 21.7 11.5107 21.7C12.4507 21.7 13.3407 21.44 14.1807 20.92C15.0407 20.38 15.7307 19.67 16.2507 18.79C16.7907 17.91 17.0607 16.98 17.0607 16H17.8107C17.8107 17.14 17.5007 18.21 16.8807 19.21C16.2807 20.19 15.4507 20.98 14.3907 21.58C13.3507 22.16 12.1907 22.45 10.9107 22.45ZM20.3724 22V21.55L22.1724 21.1V1.9L20.3724 1.45V0.999999H28.9224V1.45L27.1224 1.9V11.2H33.5724V1.9L31.7724 1.45V0.999999H40.3224V1.45L38.5224 1.9V21.1L40.3224 21.55V22H31.7724V21.55L33.5724 21.1V11.95H27.1224V21.1L28.9224 21.55V22H20.3724ZM45.4118 22.3C44.8118 22.3 44.2818 22.08 43.8218 21.64C43.3818 21.18 43.1618 20.65 43.1618 20.05C43.1618 19.45 43.3818 18.93 43.8218 18.49C44.2818 18.03 44.8118 17.8 45.4118 17.8C46.0118 17.8 46.5318 18.03 46.9718 18.49C47.4318 18.93 47.6618 19.45 47.6618 20.05C47.6618 20.65 47.4318 21.18 46.9718 21.64C46.5318 22.08 46.0118 22.3 45.4118 22.3ZM50.5189 21.55L52.3189 21.1V1.9L50.5189 1.45V0.999999H59.0689V1.45L57.2689 1.9V11.32L64.6189 2.35L62.3689 1.45V0.999999H68.0689V1.45L65.6689 2.35L60.4189 8.8L68.5189 21.1L70.0189 21.55V22H65.8189C64.9189 22 64.1489 21.78 63.5089 21.34C62.8889 20.88 62.3089 20.25 61.7689 19.45L57.2689 12.55V21.1L59.0689 21.55V22H50.5189V21.55Z" fill="white"/>
</svg>
